<svg width="210" height="128" viewBox="0 0 210 128" fill="none" xmlns="http://www.w3.org/2000/svg">
<path d="M28.0254 127.332H21.0119C21.6798 125.163 22.3602 122.993 23.0539 120.824H9.41813C8.59082 122.993 7.78355 125.163 6.99442 127.332H0C1.54583 123.541 3.09167 119.749 4.6375 115.958C13.5375 115.951 22.4308 115.946 31.3174 115.939C30.1981 119.737 29.1008 123.534 28.0254 127.332ZM209.708 127.332H202.695C201.003 123.503 199.279 119.673 197.523 115.843H204.193C206.07 119.673 207.908 123.503 209.708 127.332ZM128.571 127.332H119.85C117.662 125.15 115.505 122.971 113.38 120.796H107.216C107.324 122.971 107.432 125.15 107.54 127.332H100.527C100.457 123.522 100.384 119.711 100.307 115.901C105.906 115.901 111.503 115.898 117.102 115.891C120.842 119.701 124.666 123.515 128.571 127.332ZM156.511 123.267C156.854 124.584 156.635 125.596 155.871 126.292C155.108 126.989 153.992 127.332 152.532 127.332H129.516C128.975 123.515 128.435 119.698 127.894 115.882C135.196 115.882 142.5 115.879 149.803 115.872C151.129 115.872 152.36 116.244 153.476 116.988C154.602 117.742 155.328 118.735 155.662 120.004C155.941 121.092 156.225 122.179 156.511 123.267ZM59.6863 127.332H52.606C51.8684 125.157 51.1489 122.984 50.4495 120.815H43.4742C41.852 122.99 40.2231 125.163 38.5886 127.332H31.5655C34.5494 123.534 37.4979 119.737 40.4111 115.939C45.5066 115.932 50.5993 115.929 55.6881 115.929C56.9601 119.727 58.2932 123.528 59.6863 127.332ZM191.769 124.059C192.408 125.643 191.359 126.712 188.62 127.256C188.353 127.304 188.162 127.332 188.057 127.332H166.11C165.843 127.332 165.385 127.256 164.736 127.103C162.112 126.54 160.604 125.519 160.204 124.059C159.453 121.323 158.699 118.594 157.942 115.872C160.168 115.865 162.392 115.862 164.612 115.862C165.115 117.491 165.614 119.116 166.11 120.739C166.349 121.511 166.921 122.027 167.828 122.275C168.085 122.342 168.257 122.389 168.343 122.418C172.942 122.411 177.548 122.408 182.16 122.408C182.599 122.408 182.981 122.237 183.315 121.865C183.639 121.511 183.744 121.139 183.591 120.739C182.962 119.11 182.335 117.482 181.712 115.853H188.382C189.514 118.582 190.643 121.318 191.769 124.059ZM94.7061 115.901C93.1603 119.711 91.5858 123.522 89.9827 127.332H83.0074C81.5827 123.522 80.202 119.715 78.8661 115.91C84.1458 115.91 89.4264 115.907 94.7061 115.901ZM78.2172 115.91C76.2773 119.72 74.3021 123.528 72.2915 127.332H65.2876C64.2637 123.528 63.2809 119.724 62.339 115.92C67.6321 115.92 72.9242 115.917 78.2172 115.91ZM148.534 121.273C148.39 120.653 147.856 120.338 146.93 120.338C143.063 120.338 139.195 120.341 135.327 120.347C135.448 121.041 135.569 121.734 135.69 122.428C139.59 122.421 143.489 122.418 147.388 122.418C148.324 122.418 148.715 122.036 148.534 121.273ZM32.2621 112.723H25.6971C26.3965 110.547 27.0807 108.369 27.7486 106.187C29.8737 106.18 31.9978 106.177 34.1228 106.177C33.5121 108.359 32.8919 110.541 32.2621 112.723ZM12.567 112.733C10.3657 112.739 8.15856 112.742 5.94478 112.742C6.82934 110.56 7.71676 108.381 8.60704 106.206C10.7378 106.206 12.8695 106.203 15.0003 106.196C14.2112 108.379 13.4001 110.557 12.567 112.733ZM209.966 112.59C203.229 112.596 196.509 112.599 189.803 112.599C188.875 110.404 187.959 108.207 187.055 106.005C193.57 105.999 200.083 105.993 206.598 105.986C207.717 108.188 208.84 110.388 209.966 112.59ZM125.651 106.072C122.744 108.267 119.792 110.462 116.796 112.656C113.921 112.663 111.045 112.666 108.17 112.666C111.255 110.471 114.287 108.276 117.264 106.082C120.063 106.082 122.858 106.079 125.651 106.072ZM106.825 112.666C104.63 112.666 102.438 112.669 100.25 112.675C100.205 110.481 100.164 108.289 100.126 106.101H106.5C106.608 108.289 106.717 110.478 106.825 112.666ZM153.724 112.628C151.536 112.634 149.347 112.637 147.159 112.637C146.883 111.549 146.31 110.996 145.442 110.996C141.536 111.003 137.63 111.006 133.724 111.006C133.819 111.552 133.912 112.1 134.001 112.647H127.436C127.124 110.459 126.813 108.267 126.501 106.072C133.492 106.066 140.48 106.06 147.465 106.053C148.6 106.053 149.64 106.282 150.604 106.75C151.826 107.351 152.579 108.181 152.847 109.25C153.14 110.376 153.432 111.502 153.724 112.628ZM47.6441 106.158C46.0601 108.346 44.457 110.531 42.8348 112.714C46.7662 112.714 50.6976 112.711 54.629 112.704C53.9295 110.522 53.2453 108.34 52.5774 106.158H47.6441ZM187.027 112.609C177.033 112.615 167.039 112.621 157.045 112.628C156.74 111.502 156.432 110.376 156.12 109.25C155.833 108.181 156.139 107.351 157.055 106.788C157.78 106.292 158.715 106.044 159.822 106.034C166.476 106.027 173.133 106.022 179.794 106.015C180.901 106.015 181.979 106.244 183.038 106.721C184.345 107.322 185.214 108.152 185.643 109.221C186.101 110.347 186.562 111.476 187.027 112.609ZM98.5611 106.11C97.6833 108.298 96.7892 110.487 95.8798 112.675H89.3052C90.164 110.487 91.0133 108.298 91.853 106.11H98.5611ZM84.8967 112.685C80.7678 112.685 76.6361 112.688 72.5015 112.694C73.5196 110.506 74.5215 108.317 75.5072 106.129C77.9758 106.129 80.4405 106.127 82.9024 106.12C83.558 108.308 84.2221 110.497 84.8967 112.685ZM68.2838 112.694C66.0958 112.694 63.9011 112.697 61.6997 112.704C61.1396 110.516 60.5833 108.331 60.0298 106.149C62.2627 106.149 64.4984 106.146 66.738 106.139C67.2466 108.327 67.7619 110.512 68.2838 112.694Z" fill="#FF002B"/>
<path d="M172.674 10.3037L100.343 82.6419L105.212 87.5131L177.545 15.1751L176.125 22.2841L182.881 27.8525L187.538 0.311523L156.64 6.49108L165.574 11.7238L172.674 10.3037ZM92.8878 74.5861L152.543 14.9341L142.792 14.9427L88.019 69.7148L92.8878 74.5861ZM80.1639 62.0636L127.292 14.9341L117.546 14.9427L75.2951 57.1922L80.1639 62.0636ZM34.8314 32.3107L25.8203 40.7623H33.8029C34.0611 40.8226 34.3288 40.857 34.6016 40.857H59.391L68.471 49.412L73.1917 44.3943L63.1177 34.9098C62.4791 34.3074 61.6348 33.9718 60.7569 33.9718H42.9121L54.549 22.3357H96.1884L104.14 15.4504H53.1229C52.2098 15.4504 51.3344 15.8119 50.6881 16.4574L34.8314 32.3107Z" fill="url(#paint0_linear_5859_7840)"/>
<defs>
<linearGradient id="paint0_linear_5859_7840" x1="110.165" y1="91.541" x2="177.296" y2="22.6886" gradientUnits="userSpaceOnUse">
<stop stop-color="#FF002B"/>
<stop offset="1" stop-color="#249093"/>
</linearGradient>
</defs>
</svg>
